<svg id="logo" xmlns="http://www.w3.org/2000/svg" width="172" height="32" viewBox="0 0 172 32">
  <rect id="Rectangle_17569" data-name="Rectangle 17569" width="172" height="32" fill="none"/>
  <g id="Layer_3" data-name="Layer 3" transform="translate(1.27 -1.984)">
    <g id="Group_11224" data-name="Group 11224">
      <path id="Path_16764" data-name="Path 16764" d="M64.354,49.2,62.2,61.45a2.73,2.73,0,0,1-2.689,2.259H52.2l2.134-12.246A2.733,2.733,0,0,1,57.026,49.2Z" transform="translate(-33.781 -29.799)" fill="#7bd8c3"/>
      <path id="Path_16765" data-name="Path 16765" d="M23.778,70.709l-.813,4.606H16.557a2.678,2.678,0,0,1-2.627-3.142l.8-4.613h6.4a2.685,2.685,0,0,1,2.645,3.149Z" transform="translate(-9.564 -41.404)" fill="#736cab"/>
      <path id="Path_16766" data-name="Path 16766" d="M33.428,2.06l-.986,5.463a2.7,2.7,0,0,1-2.66,2.24H17.61l-1.8,10.249a2.7,2.7,0,0,1-2.652,2.226H5.8L7.957,9.763h-9.2L-.313,4.3A2.7,2.7,0,0,1,2.343,2.06Z" fill="#7bd8c3"/>
    </g>
    <path id="Path_16767" data-name="Path 16767" d="M130.742,18.595H124.15V14.71h17.97v3.885H135.5V35.311h-4.782Z" transform="translate(-79.263 -7.996)" fill="#fff"/>
    <path id="Path_16768" data-name="Path 16768" d="M188.035,36.458H176.06c.441,1.972,2.119,3.178,4.532,3.178a5.367,5.367,0,0,0,3.973-1.53l2.443,2.649a8.3,8.3,0,0,1-6.533,2.575c-5.474,0-9.035-3.443-9.035-8.152A8.1,8.1,0,0,1,179.883,27a7.838,7.838,0,0,1,8.24,8.211C188.123,35.575,188.064,36.075,188.035,36.458ZM176,33.78h7.788a3.945,3.945,0,0,0-7.788,0Z" transform="translate(-109.156 -15.765)" fill="#fff"/>
    <path id="Path_16769" data-name="Path 16769" d="M221,41.608l1.53-3.311a10.834,10.834,0,0,0,5.518,1.53c2.119,0,2.914-.559,2.914-1.442,0-2.575-9.565.059-9.565-6.254-.029-3,2.674-5.132,7.295-5.132a13.019,13.019,0,0,1,6.092,1.383l-1.53,3.267a9.094,9.094,0,0,0-4.562-1.177c-2.06,0-2.943.647-2.943,1.471,0,2.708,9.565.088,9.565,6.327,0,2.943-2.737,5.032-7.475,5.032A13.411,13.411,0,0,1,221,41.608Z" transform="translate(-140.484 -15.765)" fill="#fff"/>
    <path id="Path_16770" data-name="Path 16770" d="M274.566,36.72a6.561,6.561,0,0,1-3.738,1c-3.738,0-5.915-1.913-5.915-5.68v-6.5H262.47V22.005h2.443V18.15H269.5v3.855h3.944v3.532H269.5v6.445a1.847,1.847,0,0,0,1.972,2.09,3.094,3.094,0,0,0,1.839-.589Z" transform="translate(-166.699 -10.171)" fill="#fff"/>
    <path id="Path_16771" data-name="Path 16771" d="M315,24.029h4.374v8.358a14.216,14.216,0,0,1-8.329,2.619c-6.475,0-11.242-4.444-11.242-10.668s4.782-10.668,11.33-10.668a10.982,10.982,0,0,1,8.623,3.561l-3.061,2.825a6.989,6.989,0,0,0-5.327-2.325,6.342,6.342,0,0,0-6.739,6.592,6.359,6.359,0,0,0,6.681,6.592,7.567,7.567,0,0,0,3.708-.883Z" transform="translate(-190.296 -7.339)" fill="#fff"/>
    <path id="Path_16772" data-name="Path 16772" d="M373.9,27v4.249c-.368-.029-.677-.059-1.03-.059-2.531,0-4.208,1.383-4.208,4.414V43.08H364.07V27.261h4.389v2.09C369.562,27.806,371.457,27,373.9,27Z" transform="translate(-230.923 -15.765)" fill="#fff"/>
    <path id="Path_16773" data-name="Path 16773" d="M396.71,10.285a2.635,2.635,0,0,1,2.855-2.575,2.577,2.577,0,0,1,2.855,2.472,2.64,2.64,0,0,1-2.855,2.649A2.613,2.613,0,0,1,396.71,10.285Zm.559,4.782h4.591V30.886h-4.591Z" transform="translate(-251.556 -3.572)" fill="#fff"/>
    <path id="Path_16774" data-name="Path 16774" d="M436.516,11.35V33.187h-4.385V31.347a6.09,6.09,0,0,1-4.944,2.06c-4.473,0-7.917-3.178-7.917-8.152s3.443-8.148,7.917-8.148a6.083,6.083,0,0,1,4.738,1.913V11.35Zm-4.5,13.92c0-2.737-1.766-4.385-4.047-4.385s-4.047,1.648-4.047,4.385,1.766,4.385,4.047,4.385S432.013,28.007,432.013,25.27Z" transform="translate(-265.817 -5.872)" fill="#fff"/>
  </g>
</svg>
